<svg width="109" height="43" viewBox="0 0 109 43" fill="none" xmlns="http://www.w3.org/2000/svg">
<path d="M51.4022 21.1655V33.5254H47.3887V3.00205H58.0333C59.3038 2.97612 60.5671 3.19628 61.7502 3.64981C62.9332 4.10335 64.0126 4.78129 64.9261 5.6445C65.8487 6.45531 66.583 7.44967 67.0797 8.56077C67.5763 9.67187 67.8237 10.874 67.8053 12.0862C67.8317 13.305 67.5881 14.5149 67.0911 15.6331C66.5942 16.7513 65.8556 17.7513 64.9261 18.5645C63.0647 20.2985 60.7671 21.1647 58.0333 21.1631H51.4022V21.1655ZM51.4022 6.75993V17.415H58.133C58.8709 17.4363 59.6052 17.307 60.289 17.0353C60.9728 16.7635 61.591 16.3553 62.1041 15.8368C62.6145 15.352 63.0203 14.7721 63.2973 14.1315C63.5744 13.4908 63.7171 12.8024 63.7171 12.1069C63.7171 11.4115 63.5744 10.723 63.2973 10.0824C63.0203 9.44174 62.6145 8.86187 62.1041 8.37706C61.5975 7.84761 60.9814 7.42942 60.2968 7.15021C59.6121 6.87099 58.8746 6.73713 58.133 6.7575H51.4022V6.75993Z" fill="#2D2D2D"/>
<path d="M77.0537 11.959C80.0202 11.959 82.3619 12.7335 84.0786 14.2824C85.7954 15.8313 86.6529 17.955 86.6513 20.6535V33.5248H82.8123V30.6266H82.6378C80.9758 33.0133 78.7655 34.2067 76.0067 34.2067C73.6518 34.2067 71.6816 33.5248 70.0961 32.1609C69.3352 31.535 68.7269 30.751 68.3155 29.8663C67.9041 28.9815 67.6999 28.0182 67.7179 27.0465C67.7179 24.8855 68.5538 23.1669 70.2257 21.8907C71.8976 20.6145 74.1296 19.9748 76.9216 19.9716C79.3048 19.9716 81.2675 20.3978 82.8098 21.2502V20.3539C82.8143 19.6915 82.6679 19.0365 82.3812 18.4362C82.0944 17.8359 81.6746 17.3055 81.152 16.8834C80.0906 15.9479 78.7074 15.4375 77.2781 15.4538C75.0361 15.4538 73.262 16.3777 71.9558 18.2254L68.4209 16.0505C70.3653 13.3228 73.2429 11.959 77.0537 11.959ZM71.861 27.1318C71.8584 27.6308 71.9778 28.1232 72.2093 28.568C72.4409 29.0128 72.7779 29.3972 73.1922 29.689C74.0799 30.3711 75.1817 30.7325 76.3108 30.7119C78.0045 30.7091 79.6279 30.0505 80.8254 28.8804C82.155 27.6578 82.8197 26.2233 82.8197 24.577C81.5683 23.6028 79.8233 23.1157 77.5847 23.1157C75.9544 23.1157 74.5949 23.4997 73.5063 24.2677C72.407 25.047 71.861 25.9944 71.861 27.1318Z" fill="#303030"/>
<path d="M108.688 12.6406L95.2859 42.7304H91.1427L96.116 32.202L87.3037 12.6406H91.6662L98.0355 27.6429H98.1228L104.318 12.6406H108.688Z" fill="#303030"/>
<path d="M35.183 18.4991C35.1845 17.3041 35.0811 16.1113 34.8739 14.9336H17.9473V21.6871H27.642C27.4437 22.7657 27.0238 23.7939 26.4077 24.7097C25.7916 25.6255 24.9921 26.41 24.0573 27.0158V31.3996H29.8433C33.2311 28.348 35.183 23.8351 35.183 18.4991Z" fill="#4D4D4D"/>
<path d="M17.9488 35.6342C22.7924 35.6342 26.8708 34.0804 29.8448 31.4014L24.0588 27.0176C22.4484 28.0843 20.3743 28.6932 17.9488 28.6932C13.2672 28.6932 9.29351 25.6099 7.87257 21.4551H1.91211V25.9728C3.40601 28.877 5.69674 31.3184 8.52855 33.0245C11.3604 34.7305 14.6218 35.634 17.9488 35.6342Z" fill="#292929"/>
<path d="M7.87168 21.4564C7.12048 19.2792 7.12048 16.9215 7.87168 14.7443V10.2266H1.91122C0.654499 12.6697 0 15.3661 0 18.1003C0 20.8346 0.654499 23.531 1.91122 25.9741L7.87168 21.4564Z" fill="#7B7B7B"/>
<path d="M17.9488 7.5066C20.5084 7.46575 22.9817 8.41058 24.8341 10.1369L29.957 5.13205C26.7085 2.15126 22.4051 0.514754 17.9488 0.565604C14.6218 0.565752 11.3604 1.46928 8.52855 3.17533C5.69674 4.88137 3.40601 7.32278 1.91211 10.227L7.87257 14.7447C9.29351 10.5899 13.2672 7.5066 17.9488 7.5066Z" fill="#646464"/>
</svg>
