<svg width="82" height="25" viewBox="0 0 82 25" fill="none" xmlns="http://www.w3.org/2000/svg">
<path d="M72.7772 0.976562H57.2666C58.1701 6.09657 63.1395 10.9154 68.5607 10.9154H80.909C81.0596 10.4636 81.0595 9.71068 81.0595 9.25892C81.0595 4.74127 77.2948 0.976562 72.7772 0.976562Z" fill="#434343"/>
<path d="M58.6201 11.8184V24.3172H66.1495V17.6913H72.7754C76.3895 17.6913 79.5519 15.1313 80.606 11.8184H58.6201Z" fill="#303030"/>
<path d="M32.1172 0.976562V24.1672H38.7431C38.7431 24.1672 40.3996 24.1672 41.3031 22.5107C45.8207 13.626 47.176 10.9154 47.176 10.9154H48.0796V24.1672H55.609V0.976562H48.9831C48.9831 0.976562 47.3266 1.12716 46.4231 2.63304C42.6584 10.313 40.5501 14.2283 40.5501 14.2283H39.6466V0.976562H32.1172Z" fill="#303030"/>
<path d="M0.494141 24.3156V1.125H8.02356C8.02356 1.125 10.1318 1.125 11.3365 4.43794C14.3483 13.1721 14.6495 14.3768 14.6495 14.3768C14.6495 14.3768 15.2518 12.2685 17.9624 4.43794C19.1671 1.125 21.2754 1.125 21.2754 1.125H28.8048V24.3156H21.2754V11.8168H20.3718L16.1554 24.3156H12.8424L8.62595 11.8168H7.72241V24.3156H0.494141Z" fill="#303030"/>
</svg>
