<svg width="134" height="40" viewBox="0 0 134 40" fill="none" xmlns="http://www.w3.org/2000/svg">
<path fill-rule="evenodd" clip-rule="evenodd" d="M5.84503 15.3692C5.56457 16.0703 5.42434 16.8182 5.23737 17.5661C4.76993 19.8098 4.39599 22.1937 3.88181 24.4374C2.85345 24.4374 1.77836 24.4374 0.75 24.4374C1.91859 16.865 4.06878 9.4795 5.00365 1.34614C6.03201 1.34614 7.06036 1.34614 8.04198 1.34614C7.90175 2.09403 7.71477 2.79519 7.62129 3.54308C7.62129 3.58982 7.5278 3.63656 7.5278 3.73005C8.93011 1.90706 11.0803 0.644985 14.4926 1.01893C17.8581 1.34614 19.6811 4.01051 19.8213 7.14233C20.1485 13.1255 16.97 18.5477 10.4259 18.0803C8.2757 17.9401 6.63967 17.1454 5.84503 15.3692ZM10.2389 4.01052C7.48106 5.41282 4.81668 11.8634 7.94849 14.6213C10.0052 16.4443 13.2305 15.4627 14.5861 13.7799C16.1286 11.8634 17.5309 6.34769 15.1937 4.38446C14.3991 3.73005 13.137 3.49634 11.9684 3.63657C11.127 3.68331 10.7064 3.7768 10.2389 4.01052Z" fill="#030303"/>
<path fill-rule="evenodd" clip-rule="evenodd" d="M34.2657 17.7515C33.2841 17.7515 32.3025 17.7515 31.2741 17.7515C31.4144 16.8166 31.6013 15.9285 31.7883 15.0404C30.9002 16.3492 29.3576 17.845 27.114 18.0787C23.8887 18.4059 20.9438 16.7699 20.6634 14.1055C20.5699 13.2174 20.6166 11.7683 21.3645 10.6465C23.2342 7.70163 28.0956 7.51466 32.9101 7.65489C34.3592 2.32614 26.5998 3.12077 23.9354 4.85028C24.0756 3.82192 24.3094 2.84031 24.4496 1.81196C29.2642 0.316164 35.7615 0.690114 36.1354 5.87864C36.2757 7.93535 35.668 9.94532 35.2941 11.9085C34.9201 13.825 34.5462 15.6948 34.2657 17.7515ZM24.0756 13.4978C24.1691 14.8534 25.6649 15.6013 26.8802 15.6013C30.199 15.648 31.7883 12.7499 32.3025 9.89857C28.563 9.7116 23.8419 10.179 24.0756 13.4978Z" fill="#030303"/>
<path fill-rule="evenodd" clip-rule="evenodd" d="M41.463 1.39453C42.1642 5.74167 43.0056 9.94859 43.66 14.3892C46.1374 10.1356 48.4278 5.69493 50.8585 1.39453C51.9803 1.39453 53.1021 1.39453 54.2707 1.39453C51.2792 6.81677 47.7734 12.7532 44.4079 18.4559C43.3795 20.2321 42.3512 22.6161 40.8554 23.7847C39.5466 24.813 37.0224 25.0467 34.9189 24.626C34.9657 23.6912 35.2929 22.99 35.3396 22.1019C35.7603 22.0551 36.2745 22.3356 36.7887 22.3356C39.0791 22.3356 40.3412 20.2321 41.1826 18.5961C40.201 12.9402 39.1259 7.33095 38.1442 1.62825C38.0508 1.53476 38.0975 1.48802 38.1442 1.39453C39.2661 1.39453 40.3879 1.39453 41.463 1.39453Z" fill="#030303"/>
<path fill-rule="evenodd" clip-rule="evenodd" d="M55.6262 27.3339C54.9251 31.3071 54.037 35.0466 53.3358 39.0198C51.1389 39.0198 48.9419 39.0198 46.6982 39.0198C47.7266 34.1585 48.6147 29.3439 49.5963 24.5293C50.5779 19.7615 51.7465 14.9937 52.3075 9.94536C54.0837 9.80513 56.4676 9.80513 58.2439 9.94536C58.1971 11.0672 57.9167 12.0021 57.8232 13.0772C59.5527 11.3477 61.4224 9.05723 65.3956 9.43118C69.1818 9.80513 71.2853 12.9837 71.5658 17.0036C72.0799 23.9217 68.7144 30.6995 62.6378 31.1669C58.8515 31.4474 57.0753 29.7178 55.6262 27.3339ZM58.2906 17.0036C56.7481 19.2006 56.2339 23.4075 58.1971 25.0435C59.4125 26.0719 61.6561 25.5577 62.6845 24.7163C63.9933 23.6412 64.9282 21.5845 64.8814 19.0136C64.8347 16.6764 63.8063 14.7132 61.3289 15.0404C59.8799 15.2274 58.9918 15.9753 58.2906 17.0036Z" fill="#222222"/>
<path fill-rule="evenodd" clip-rule="evenodd" d="M89.7498 30.7463C88.0203 30.6995 86.0571 30.8398 84.4678 30.6528C84.6548 29.7179 84.6548 28.5493 84.795 27.6145C84.2808 28.1287 83.9069 28.8765 83.2525 29.4842C81.1023 31.4474 76.2877 31.8681 73.9038 29.9049C71.3329 27.7547 71.7536 22.6129 73.9038 20.416C76.3812 17.8451 81.0555 17.1907 85.8701 17.7049C86.3376 15.7416 85.0287 14.5263 83.3927 14.2926C81.0088 13.9654 77.8303 14.9937 76.4279 15.8351C76.7084 14.1524 76.8019 12.3294 77.1291 10.6466C78.8119 10.0389 80.4011 9.5715 82.4111 9.47801C87.9736 9.10406 91.8065 10.9738 92.1805 15.7416C92.3675 18.2658 91.6196 20.8834 91.0586 23.3608C90.5445 25.7915 90.1705 28.2689 89.7498 30.7463ZM83.0655 21.3976C81.0555 21.4443 78.8586 22.0987 78.3912 23.5945C78.0172 24.9034 78.9521 26.1187 79.9337 26.3057C83.0188 26.9601 85.1222 23.9217 85.3559 21.4911C84.6548 21.3508 83.6264 21.3976 83.0655 21.3976Z" fill="#222222"/>
<path fill-rule="evenodd" clip-rule="evenodd" d="M110.129 10.6503C109.802 12.3331 109.194 13.7354 108.867 15.4181C107.231 14.8572 105.267 14.0158 102.697 14.2963C101.668 14.4365 100.64 14.9507 100.64 15.979C100.687 17.2411 102.603 17.7086 103.772 18.176C105.408 18.8771 107.371 19.812 108.166 21.2143C109.521 23.645 108.166 27.1975 106.717 28.6933C105.501 29.9553 103.211 30.9837 100.874 31.1707C97.8352 31.4044 94.6567 30.8435 92.0391 30.1423C92.413 28.4128 92.8337 26.8235 93.3011 25.2343C95.0306 25.9354 96.9939 26.5898 99.6582 26.3561C100.92 26.2159 102.323 25.7952 102.136 24.2994C101.995 23.0841 100.172 22.6634 98.8169 22.1024C96.2927 21.0741 94.423 19.7653 94.423 16.353C94.423 9.34148 104.146 8.17289 110.129 10.6503Z" fill="#212121"/>
<path fill-rule="evenodd" clip-rule="evenodd" d="M126.676 10.6486C126.302 12.2846 125.787 13.8272 125.32 15.4164C123.777 14.8088 121.767 14.0141 119.197 14.2946C118.168 14.3881 117.14 14.9023 117.14 15.9774C117.187 17.2862 119.524 17.9873 120.599 18.4548C122.796 19.3896 124.899 20.418 125.18 22.9421C125.46 25.4195 124.432 27.4295 122.983 28.7851C121.627 30.0939 119.617 30.982 117.374 31.169C114.289 31.4027 111.297 30.8418 108.539 30.1406C108.82 28.3644 109.38 26.9153 109.708 25.2326C110.97 25.6065 112.185 26.2142 113.681 26.3544C115.784 26.5414 118.636 26.4011 118.589 24.5782C118.542 22.6149 114.475 22.1942 112.886 20.9322C111.157 19.5766 110.082 16.2578 111.437 13.5467C113.681 9.33978 121.394 8.40491 126.676 10.6486Z" fill="#212121"/>
<path d="M129.155 12.7979H128.313L128.36 12.4707H130.417L130.37 12.7979H129.529L129.061 15.3688H128.687L129.155 12.7979Z" fill="#6B6B6B"/>
<path d="M132.614 15.3688L132.801 13.8263C132.848 13.5458 132.894 13.1251 132.941 12.8447C132.801 13.1251 132.661 13.4991 132.474 13.7795L131.632 15.3688H131.352L131.118 13.8263C131.071 13.4991 131.025 13.1719 131.025 12.8447C130.978 13.1251 130.884 13.5458 130.791 13.8263L130.417 15.3688H130.09L130.838 12.4707H131.305L131.539 14.1067C131.586 14.3404 131.586 14.6209 131.586 14.8546C131.679 14.6209 131.819 14.3872 131.913 14.1535L132.801 12.4707H133.268L132.894 15.3688H132.614Z" fill="#6B6B6B"/>
</svg>
