<svg width="117" height="29" viewBox="0 0 117 29" fill="none" xmlns="http://www.w3.org/2000/svg">
<path d="M44.3051 12.6681C44.0039 14.9269 42.1968 14.9269 40.5404 14.9269H39.6368L40.3898 10.5598C40.3898 10.2586 40.6909 10.1081 40.9921 10.1081H41.4439C42.6486 10.1081 43.7027 10.1081 44.3051 10.7104C44.3051 11.3128 44.3051 11.9151 44.3051 12.6681ZM43.5521 6.64453H37.0768C36.6251 6.64453 36.3239 6.94571 36.1733 7.39747L33.6133 23.9622C33.6133 24.2634 33.7639 24.5645 34.2156 24.5645H37.2274C37.6792 24.5645 37.9803 24.2634 38.1309 23.8116L38.8839 19.294C38.8839 18.8422 39.3356 18.541 39.7874 18.541H41.8956C46.1121 18.541 48.5215 16.4328 49.2745 12.3669C49.5756 10.5598 49.2745 9.20453 48.5215 8.15041C47.3168 7.24688 45.6604 6.64453 43.5521 6.64453Z" fill="#1D1D1D"/>
<path d="M58.4624 18.6919C58.1613 20.499 56.806 21.7037 54.9989 21.7037C54.0954 21.7037 53.3425 21.4025 52.8907 20.8001C52.4389 20.1978 52.2883 19.4448 52.4389 18.6919C52.7401 16.8848 54.0954 15.6801 55.9025 15.6801C56.806 15.6801 57.5589 15.9813 58.0107 16.5837C58.3119 17.0354 58.613 17.7884 58.4624 18.6919ZM62.6789 12.6684H59.6672C59.366 12.6684 59.2154 12.819 59.0648 13.1201L58.9142 14.0237L58.7636 13.7225C58.1613 12.819 56.6554 12.3672 55.1495 12.3672C51.686 12.3672 48.8248 14.9272 48.2225 18.5413C47.9213 20.3484 48.373 22.0048 49.4271 23.2095C50.3307 24.2637 51.686 24.7154 53.3425 24.7154C56.053 24.7154 57.5589 22.9084 57.5589 22.9084L57.4084 23.8119C57.4084 24.1131 57.5589 24.4143 58.0107 24.4143H60.7213C61.173 24.4143 61.4742 24.1131 61.6248 23.6613L63.2813 13.1201C63.2813 12.9695 63.1307 12.6684 62.6789 12.6684Z" fill="#1D1D1D"/>
<path d="M79.093 12.668H75.9307C75.6295 12.668 75.3283 12.8186 75.1777 13.1197L70.9613 19.4444L69.1542 13.4209C69.0036 12.9691 68.7024 12.8186 68.2506 12.8186H65.2389C64.9377 12.8186 64.6365 13.1197 64.7871 13.5715L68.2506 23.5103L65.0883 28.028C64.7871 28.3291 65.0883 28.9315 65.5401 28.9315H68.7024C69.0036 28.9315 69.3048 28.7809 69.4554 28.4797L79.6954 13.5715C79.8459 13.1197 79.5448 12.668 79.093 12.668Z" fill="#1D1D1D"/>
<path d="M90.0853 12.6681C89.7842 14.9269 87.9771 14.9269 86.3206 14.9269H85.4171L86.17 10.5598C86.17 10.2586 86.4712 10.1081 86.7724 10.1081H87.2242C88.4289 10.1081 89.483 10.1081 90.0853 10.7104C90.2359 11.3128 90.2359 11.9151 90.0853 12.6681ZM89.3324 6.64453H82.8571C82.4053 6.64453 82.1042 6.94571 81.9536 7.39747L79.3936 23.9622C79.3936 24.2634 79.5442 24.5645 79.9959 24.5645H83.3089C83.61 24.5645 83.9112 24.4139 83.9112 23.9622L84.6641 19.294C84.6641 18.8422 85.1159 18.541 85.5677 18.541H87.6759C91.8924 18.541 94.3018 16.4328 95.0548 12.3669C95.356 10.5598 95.0548 9.20453 94.3018 8.15041C93.2477 7.24688 91.5912 6.64453 89.3324 6.64453Z" fill="#434343"/>
<path d="M104.392 18.6919C104.091 20.499 102.736 21.7037 100.929 21.7037C100.025 21.7037 99.2722 21.4025 98.8204 20.8001C98.3686 20.1978 98.218 19.4448 98.3686 18.6919C98.6698 16.8848 100.025 15.6801 101.832 15.6801C102.736 15.6801 103.489 15.9813 103.94 16.5837C104.242 17.0354 104.543 17.7884 104.392 18.6919ZM108.609 12.6684H105.597C105.296 12.6684 105.145 12.819 104.994 13.1201L104.844 14.0237L104.693 13.7225C104.091 12.819 102.585 12.3672 101.079 12.3672C97.6157 12.3672 94.7545 14.9272 94.1521 18.5413C93.851 20.3484 94.3027 22.0048 95.3568 23.2095C96.2604 24.2637 97.6157 24.7154 99.2721 24.7154C101.983 24.7154 103.489 22.9084 103.489 22.9084L103.338 23.8119C103.338 24.1131 103.489 24.4143 103.94 24.4143H106.651C107.103 24.4143 107.404 24.1131 107.554 23.6613L109.211 13.1201C109.211 12.9695 108.91 12.6684 108.609 12.6684Z" fill="#434343"/>
<path d="M112.222 7.09629L109.512 23.9622C109.512 24.2634 109.662 24.5645 110.114 24.5645H112.825C113.276 24.5645 113.578 24.2634 113.728 23.8116L116.288 7.24689C116.288 6.94571 116.138 6.64453 115.686 6.64453H112.674C112.523 6.64453 112.373 6.94571 112.222 7.09629Z" fill="#434343"/>
<path d="M6.8085 27.726L7.26025 24.5636H6.20614H0.935547L4.54968 1.52363C4.54968 1.52363 4.54967 1.37305 4.70025 1.37305H4.85085H13.7356C16.5967 1.37305 18.705 1.9754 19.7591 3.18011C20.2108 3.78246 20.512 4.38482 20.6626 4.98717C20.8132 5.74011 20.8132 6.49305 20.6626 7.54717V8.14952L21.1144 8.4507C21.5662 8.60129 21.8673 8.90246 22.1685 9.20364C22.6203 9.65541 22.9214 10.2578 22.9214 11.0107C23.072 11.7636 23.072 12.6672 22.7709 13.7213C22.4697 14.926 22.1685 15.8295 21.7167 16.7331C21.265 17.486 20.6626 18.0883 20.0603 18.6907C19.4579 19.1425 18.5544 19.4436 17.8014 19.7448C16.8979 19.8954 15.9944 20.046 14.9403 20.046H14.1873C13.7356 20.046 13.2838 20.1966 12.832 20.4978C12.5309 20.7989 12.2297 21.2507 12.0791 21.7025V22.0036L11.1756 27.5754V27.726V27.8766C11.1756 27.8766 11.1755 27.8766 11.025 27.8766H6.8085V27.726Z" fill="#1E1E1E"/>
<path d="M21.719 7.54688C21.719 7.69746 21.719 7.84806 21.5684 7.99864C20.3637 14.0222 16.4484 15.9798 11.3284 15.9798H8.7684C8.16604 15.9798 7.56371 16.4316 7.56371 17.0339L6.2084 25.4669L5.90723 27.8763C5.90723 28.3281 6.20839 28.6292 6.50957 28.6292H11.1778C11.7802 28.6292 12.2319 28.1775 12.2319 27.7257V27.4245L13.1355 22.0034V21.7022C13.2861 21.0998 13.7378 20.7987 14.1896 20.7987H14.9425C19.4602 20.7987 22.9237 18.9916 23.8272 13.721C24.279 11.4622 23.9778 9.65511 22.9237 8.45041C22.6225 8.14923 22.1708 7.84805 21.719 7.54688Z" fill="#434343"/>
<path d="M20.5141 7.0963C20.3635 7.0963 20.2129 6.94571 19.9117 6.94571C19.7611 6.94571 19.4599 6.79512 19.3093 6.79512C18.5564 6.64453 17.8035 6.64453 17.0505 6.64453H10.1235C9.97288 6.64453 9.82229 6.64453 9.6717 6.79512C9.37053 6.94571 9.06936 7.24688 9.06936 7.54806L7.56348 16.8845V17.1857C7.71406 16.5834 8.16581 16.1316 8.76816 16.1316H11.3282C16.4482 16.1316 20.3635 14.0234 21.5682 8.15041C21.5682 7.99983 21.5682 7.84924 21.7188 7.69865C21.4176 7.54806 21.1164 7.39748 20.8152 7.24689C20.6646 7.0963 20.5141 7.0963 20.5141 7.0963Z" fill="#0E0E0E"/>
<path d="M9.0685 7.54835C9.0685 7.24717 9.36967 6.946 9.67085 6.79541C9.82143 6.79541 9.97203 6.64482 10.1226 6.64482H17.0497C17.8026 6.64482 18.7061 6.64482 19.3085 6.79541C19.4591 6.79541 19.7603 6.79541 19.9109 6.946C20.0614 6.946 20.212 7.09658 20.5132 7.09658C20.6638 7.09658 20.6638 7.09659 20.8144 7.24718C21.1155 7.39776 21.4167 7.54835 21.7179 7.69894C22.0191 5.44012 21.7179 3.93423 20.5132 2.57894C19.1579 1.07305 16.7485 0.470703 13.7367 0.470703H4.85202C4.24967 0.470703 3.64731 0.922463 3.64731 1.52482L0.0332031 24.7154C0.0332031 25.1672 0.33438 25.6189 0.786145 25.6189H6.20731L7.56262 16.8848L9.0685 7.54835Z" fill="#1E1E1E"/>
</svg>
