<svg width="220" height="27" viewBox="0 0 220 27" fill="none" xmlns="http://www.w3.org/2000/svg">
<path d="M2.83516 1.34414C1.91672 1.79591 1.15137 2.54885 0.845227 3.30179C0.692154 3.75356 0.539062 7.81944 0.539062 15.1983V26.3418H5.89662V19.2642H12.938L14.7749 22.7277L16.6117 26.1912H19.6732C21.357 26.1912 22.7347 26.1912 22.7347 26.0406C22.7347 25.89 21.8162 24.083 20.5916 21.9747L18.4486 18.0594L19.0609 17.7583C22.1224 15.8006 23.5 11.7347 22.7347 7.21709C22.2754 4.5065 20.8978 2.54885 18.7548 1.64532C17.5302 1.19355 17.3771 1.04297 10.4888 1.04297C5.13126 1.04297 3.44745 1.04296 2.83516 1.34414ZM16.1525 6.46415C16.4587 6.61473 16.9179 7.0665 17.071 7.51826C17.5302 8.57238 17.5302 11.1324 17.224 11.8853C16.3056 13.6924 15.081 14.1441 9.87653 14.1441H6.0497V6.16297H10.795C13.3972 6.16297 15.8464 6.31356 16.1525 6.46415ZM30.5414 1.19355C28.2453 1.9465 26.5615 3.45238 25.9492 5.7112C25.3369 7.51826 24.7246 11.5842 24.7246 13.6924C24.7246 15.65 25.3369 19.5653 25.7961 21.2218C26.7146 23.9324 28.0922 25.4383 30.6945 26.0406C31.9191 26.3418 32.9906 26.3418 36.9705 26.3418C41.4096 26.3418 41.8688 26.1912 43.0934 25.7395C46.3079 24.3842 47.6856 20.6195 47.6856 13.6924C47.6856 6.31356 46.1549 2.69944 42.7872 1.49473C41.5627 1.04297 41.1035 1.04297 36.2051 1.04297C33.6029 1.04297 31.0006 1.19355 30.5414 1.19355ZM41.2565 6.76532C42.7872 8.87356 42.7872 19.1136 41.2565 20.6194C40.7973 21.0712 31.9191 21.0712 31.6129 20.6194C30.5414 19.2642 30.0822 11.8853 31.0006 8.4218C31.3067 7.0665 31.4598 6.61473 31.919 6.46415C32.2252 6.31356 34.3682 6.31356 36.8174 6.31356C40.4912 6.31356 41.1034 6.31356 41.2565 6.76532ZM52.8901 1.49473C52.4309 1.79591 51.8186 2.39826 51.5124 2.85002C51.0532 3.60297 51.0532 4.05473 50.9001 13.09C50.9001 19.4147 50.9001 22.8783 51.0532 23.4806C51.5124 24.8359 52.4309 25.89 53.8085 26.1912C55.1862 26.4924 65.4421 26.4924 67.2789 26.1912C70.7996 25.5889 72.6365 23.6312 72.9427 19.8665C73.0957 17.7583 72.7896 16.2524 71.8711 14.7465L71.2589 13.6924L72.1773 12.0359C72.9427 10.53 73.0957 10.3794 73.0957 8.12061C73.0957 6.31355 72.9426 5.56061 72.6365 4.65708C72.0242 3.30179 71.1058 2.39826 69.7281 1.64532L68.5035 1.04297H61.3091C53.8085 1.04297 53.8085 1.04297 52.8901 1.49473ZM67.1259 6.46415C67.432 6.76532 67.5851 8.2712 67.432 9.02414C67.279 9.47591 66.9728 9.92767 66.6667 10.3794C66.0544 10.9818 66.0544 10.9818 61.3091 10.9818H56.5638V6.16297H61.7683C64.5236 6.31356 66.9728 6.46415 67.1259 6.46415ZM66.0544 16.5536C66.9728 16.8547 67.432 17.9089 67.432 19.1136C67.432 19.8665 67.2789 20.3183 66.9728 20.4689C66.6666 20.77 65.289 20.77 61.4622 20.77H56.2577V15.9512L60.8499 16.1018C63.4521 16.2524 65.7482 16.403 66.0544 16.5536ZM80.5963 1.49473C78.3002 2.39826 77.2287 3.90414 76.3102 7.21709C75.851 8.87356 75.851 9.77709 75.851 13.6924C75.851 17.7583 75.851 18.21 76.4633 20.3183C77.2287 22.8783 77.841 23.9324 79.2186 24.9865C80.9024 26.1912 81.3617 26.1912 87.1784 26.1912C92.9952 26.1912 93.6075 26.0406 95.1383 24.9865C96.5159 24.083 97.1282 22.8783 97.8936 20.3183C98.5059 18.21 98.5058 17.7583 98.5058 13.6924C98.5058 9.92768 98.5059 9.02415 98.0466 7.21709C97.1282 3.75356 96.0567 2.24767 93.7606 1.49473C92.536 1.04297 92.0768 1.04297 87.1784 1.04297C82.2801 1.04297 81.6678 1.04297 80.5963 1.49473ZM91.6176 6.46415C92.2299 6.76532 92.536 7.36768 92.9952 9.92768C93.6075 13.09 92.9952 18.963 92.0768 20.3183C91.7707 20.9206 91.7706 20.9206 87.1784 20.9206C81.8209 20.9206 82.127 21.0712 81.5147 18.0594C80.5963 13.843 81.3617 6.91591 82.5863 6.46415C83.3516 6.16297 91.0053 6.16297 91.6176 6.46415Z" fill="#343434"/>
<path d="M102.944 1.64396L102.179 2.3969V24.8346L102.791 25.4369C103.403 26.0393 103.709 26.0393 104.781 26.0393C105.852 26.0393 106.159 25.8887 106.618 25.5875C107.383 24.684 107.536 23.7804 107.536 19.8652V16.1004H110.904L112.588 17.6063C115.955 20.4675 117.18 21.9734 117.18 23.6299C117.18 24.5334 117.333 24.8346 117.945 25.4369C118.711 26.1899 118.864 26.1899 119.935 26.1899C120.854 26.1899 121.16 26.0393 121.772 25.5875C122.537 24.9851 122.537 24.8346 122.537 23.1781C122.537 21.8228 122.384 21.2204 121.772 20.0157C121.007 18.3593 118.558 15.6487 117.18 14.444L116.261 13.691L117.792 12.3357C119.629 10.6793 121.313 8.57103 122.078 6.91455C122.537 6.01102 122.691 5.25809 122.691 4.05338C122.691 2.39691 122.691 2.3969 121.925 1.64396C121.313 1.04161 121.007 1.04161 119.782 1.04161C118.404 1.04161 118.251 1.04161 117.792 1.64396C117.486 2.09573 117.333 2.5475 117.333 3.30044C117.333 3.90279 117.18 4.65573 117.027 4.95691C116.568 5.86044 114.884 7.81808 112.741 9.62514L111.057 10.9804H107.689V7.21573C107.689 5.25808 107.536 3.14985 107.383 2.69808C107.077 1.49338 106.159 0.891022 104.781 0.891022C103.709 1.04161 103.556 1.04161 102.944 1.64396ZM132.181 1.34279C129.12 2.24632 127.436 4.50514 126.211 8.8722C125.599 10.8298 125.599 11.5828 125.446 17.3051C125.293 24.0816 125.446 24.8346 126.517 25.5875C127.283 26.1899 129.273 26.1899 129.885 25.5875C130.65 24.9851 130.956 24.2322 130.956 21.9734V19.7146H142.896V22.2746C142.896 24.684 142.896 24.8346 143.508 25.4369C144.121 26.0393 144.427 26.0393 145.498 26.0393C146.723 26.0393 146.876 26.0393 147.488 25.2863L148.101 24.5334V17.3051C147.948 10.5287 147.948 9.92633 147.488 8.42044C146.417 4.80632 144.733 2.54749 142.59 1.64396C141.365 1.04161 141.059 1.04161 137.232 1.04161C134.324 1.04161 132.793 1.04161 132.181 1.34279ZM140.141 6.46279C141.365 6.91456 142.437 9.62515 142.743 13.0887L142.896 14.5946H130.956L131.11 12.7875C131.416 9.62514 132.64 6.61338 133.865 6.3122C134.936 6.16162 139.375 6.3122 140.141 6.46279ZM155.448 1.34279C153.152 2.09573 151.927 3.14985 151.162 5.10749C150.703 6.16161 150.703 6.76397 150.703 8.57103C150.703 12.1851 151.774 14.2934 154.377 15.4981C155.448 15.9499 155.754 16.1004 160.346 16.1004C165.092 16.251 165.245 16.251 165.704 16.7028C166.316 17.3052 166.469 19.2628 165.857 20.1663L165.398 20.7687H159.275C153.458 20.7687 152.999 20.7687 152.54 21.2204C151.315 22.2746 151.162 24.3828 152.387 25.4369L153.152 26.0393H159.887C163.561 26.0393 166.929 25.8887 167.388 25.7381C168.612 25.4369 169.99 24.0816 170.909 22.4251C171.674 21.0699 171.674 20.7687 171.674 18.3593C171.674 16.1004 171.674 15.7993 171.062 14.5946C170.296 12.9381 169.225 11.884 168.153 11.2816C167.388 10.9804 166.622 10.8299 162.03 10.6793C155.907 10.5287 156.06 10.6793 156.06 8.26985C156.06 5.86043 155.754 6.01102 163.102 5.86043L169.378 5.70985L169.99 5.10749C170.602 4.50514 170.602 4.35456 170.755 2.5475L170.909 0.589844H163.714C158.51 1.04161 156.06 1.1922 155.448 1.34279ZM178.256 1.34279C177.797 1.49337 177.031 1.79455 176.572 1.94514C173.664 3.45102 172.286 8.72162 174.123 12.3357C174.888 13.8416 175.654 14.7451 177.031 15.4981C178.103 16.1004 178.256 16.1004 182.848 16.251C185.45 16.251 187.747 16.4016 188.053 16.5522C188.818 16.8534 189.277 18.0581 188.971 19.4134C188.665 21.0699 188.971 21.0699 181.93 21.0699H175.654L175.042 21.6722C174.429 22.2746 174.429 22.5757 174.429 23.6299C174.429 24.684 174.582 24.9851 175.042 25.5875L175.654 26.1899H182.542C190.349 26.1899 190.502 26.1899 192.033 24.684C193.41 23.3287 194.023 21.8228 194.176 19.1122C194.329 16.1004 193.716 14.2934 192.033 12.6369C191.267 11.884 190.502 11.4322 189.89 11.2816C189.43 11.131 187.134 10.9804 184.685 10.9804C182.236 10.9804 180.093 10.9804 179.634 10.8299C178.868 10.6793 178.409 9.92632 178.409 8.57103C178.409 7.21573 178.715 6.46279 179.634 6.3122C180.093 6.3122 182.848 6.16161 185.91 6.16161C193.104 6.16161 193.257 6.01103 193.257 2.69808V1.04161H186.063C181.318 1.04161 178.868 1.1922 178.256 1.34279ZM203.513 1.49338C202.901 1.79455 201.982 2.24632 201.523 2.5475C199.686 3.90279 198.002 7.5169 197.543 11.2816C197.237 13.8416 197.237 23.931 197.543 24.8346C197.849 25.7381 198.768 26.1899 200.145 26.1899C200.911 26.1899 201.37 26.0393 201.982 25.5875L202.748 24.9852V22.4251L202.901 19.8652H214.534L214.687 22.4251V24.9852L215.453 25.5875C216.065 26.1899 216.371 26.1899 217.29 26.1899C218.208 26.1899 218.514 26.0393 219.127 25.5875L219.892 24.9852V17.9075C219.892 11.4322 219.892 10.6793 219.433 9.02279C218.361 5.25808 216.83 2.99926 214.687 1.94514C213.31 1.34279 213.31 1.34279 209.024 1.1922C205.197 1.04161 204.585 1.04161 203.513 1.49338ZM212.698 7.06515C213.616 8.11926 214.381 10.3781 214.381 12.6369L214.534 14.444H202.748V13.0887C202.748 10.2275 203.972 6.91456 205.35 6.3122C205.656 6.16162 207.187 6.16161 209.024 6.16161H212.085L212.698 7.06515Z" fill="#505050"/>
</svg>
