<svg width="104" height="33" viewBox="0 0 104 33" fill="none" xmlns="http://www.w3.org/2000/svg">
<path d="M96.9357 0.912109H90.4604C88.5028 0.912109 86.9969 1.51446 86.0934 3.47211L73.7451 31.6321H82.4792C82.4792 31.6321 83.9851 27.8674 84.2863 26.9639C85.1898 26.9639 93.7734 26.9639 94.9781 26.9639C95.2792 28.018 96.0322 31.4815 96.0322 31.4815H103.863L96.9357 0.912109ZM86.6957 20.6392C87.4487 18.8321 90.0087 12.0556 90.0087 12.0556C90.0087 12.2062 90.7616 10.2486 91.0628 9.19447L91.6651 11.9051C91.6651 11.9051 93.3216 19.2839 93.6228 20.7898H86.6957V20.6392Z" fill="#303030"/>
<path d="M74.3469 21.5413C74.3469 27.8661 68.6245 32.0825 59.7398 32.0825C55.9751 32.0825 52.361 31.3296 50.4033 30.4261L51.608 23.499L52.6621 23.9508C55.3727 25.1555 57.1798 25.6072 60.4927 25.6072C62.9021 25.6072 65.4622 24.7037 65.4622 22.5955C65.4622 21.2402 64.408 20.3366 61.0951 18.8308C57.9327 17.3249 53.7163 14.9155 53.7163 10.5484C53.7163 4.52487 59.5892 0.458984 67.8716 0.458984C71.0339 0.458984 73.7445 1.06134 75.401 1.81428L74.1963 8.44017L73.5939 7.83781C72.088 7.23546 70.1304 6.63311 67.2692 6.63311C64.1069 6.78369 62.601 8.13899 62.601 9.3437C62.601 10.699 64.408 11.7531 67.2692 13.1084C72.088 15.3672 74.3469 17.9272 74.3469 21.5413Z" fill="#2D2D2D"/>
<path d="M0.859375 1.20978L1.00996 0.607422H13.9606C15.7676 0.607422 17.1229 1.20978 17.5747 3.16742L20.4359 16.7204C17.5747 9.49213 10.9488 3.61919 0.859375 1.20978Z" fill="#7B7B7B"/>
<path d="M38.6569 0.910354L25.5557 31.4798H16.671L9.1416 5.87977C14.5628 9.3433 19.0804 14.7645 20.7369 18.5292L21.6404 21.6915L29.7722 0.759766H38.6569V0.910354Z" fill="#2D2D2D"/>
<path d="M42.1212 0.759766H50.4035L45.1329 31.4798H36.8506L42.1212 0.759766Z" fill="#2D2D2D"/>
</svg>
