<svg width="132" height="38" viewBox="0 0 132 38" fill="none" xmlns="http://www.w3.org/2000/svg">
<path d="M18.9913 0.941406C9.04746 0.941406 0.990234 9.03272 0.990234 19.0186C0.990234 29.0044 9.04746 37.0958 18.9913 37.0958C28.9351 37.0958 36.9792 29.0044 36.9792 19.0186C36.9792 9.03272 28.922 0.941406 18.9913 0.941406ZM25.2667 28.1756C24.7296 28.4256 24.1662 28.6361 23.5898 28.7808C21.4019 29.386 19.2009 29.4123 17.0261 28.7018C14.3927 27.8467 12.6372 26.0442 11.6022 23.505C11.4057 23.0182 11.2616 22.5051 11.1174 21.992H9.03436C8.68063 21.992 8.4055 21.7157 8.4055 21.3605V19.9659C8.4055 19.6106 8.68063 19.3343 9.03436 19.3343H10.7375C10.7375 18.9528 10.7375 18.5844 10.7375 18.1897H9.03436C8.68063 18.1897 8.4055 17.9134 8.4055 17.5582V16.1636C8.4055 15.8084 8.68063 15.5321 9.03436 15.5321H11.2092L11.2878 15.3216C11.8773 13.4533 12.873 11.8614 14.432 10.651C15.6636 9.69055 17.0785 9.16428 18.6113 8.91431C20.7861 8.55908 22.8823 8.86168 24.9261 9.66423C25.0571 9.71686 25.1881 9.78264 25.306 9.84842C25.7908 10.1379 25.9218 10.5063 25.6991 11.0325C25.4632 11.5851 25.2405 12.1377 24.9916 12.6903C24.782 13.1639 24.4807 13.3086 23.9828 13.1902C23.3015 13.0323 22.6203 12.8218 21.9259 12.6771C20.4717 12.3745 19.0306 12.3613 17.6156 12.9271C16.3972 13.4139 15.6636 14.3348 15.1526 15.5058C15.1395 15.5189 15.1395 15.5321 15.1395 15.5452H19.3712C19.7249 15.5452 20.0001 15.8215 20.0001 16.1768V17.5714C20.0001 17.9266 19.7249 18.2029 19.3712 18.2029H14.55C14.5369 18.5713 14.55 18.9528 14.55 19.3475H19.3843C19.738 19.3475 20.0132 19.6238 20.0132 19.979V21.3736C20.0132 21.7288 19.738 22.0051 19.3843 22.0051H14.9692C15.5063 23.5313 16.371 24.7154 17.9956 25.2285C19.2926 25.6364 20.6027 25.61 21.9259 25.3469C22.6072 25.2022 23.2753 24.9917 23.9566 24.847C24.4938 24.7285 24.782 24.8733 25.0047 25.3601C25.2536 25.9126 25.4894 26.4652 25.7122 27.031C25.9218 27.5309 25.7908 27.9388 25.2667 28.1756Z" fill="#030303"/>
<path d="M48.1792 26.1092L43.5151 11.4922H47.118L48.8866 17.6758C49.3845 19.4125 49.843 21.0834 50.1836 22.899H50.2491C50.616 21.136 51.0745 19.4125 51.5724 17.7416L53.4327 11.4922H56.9307L52.0309 26.1092H48.1792Z" fill="#030303"/>
<path d="M67.8965 20.6901C67.8965 24.5713 65.1583 26.3474 62.3284 26.3474C59.2366 26.3474 56.8652 24.3081 56.8652 20.8874C56.8652 17.4667 59.1055 15.2695 62.4988 15.2695C65.7348 15.2695 67.8965 17.5062 67.8965 20.6901ZM60.2453 20.7953C60.2453 22.6109 61.0052 23.9792 62.407 23.9792C63.6779 23.9792 64.5032 22.703 64.5032 20.7953C64.5032 19.2165 63.9006 17.6114 62.407 17.6114C60.8349 17.6114 60.2453 19.2428 60.2453 20.7953Z" fill="#030303"/>
<path d="M69.9276 19.0065C69.9276 17.4409 69.8883 16.4278 69.8359 15.52H72.6658L72.7706 17.4672H72.8623C73.3995 15.9279 74.6965 15.2832 75.7184 15.2832C76.0197 15.2832 76.1769 15.2832 76.4127 15.3227V18.4276C76.1769 18.3882 75.8887 18.3355 75.5219 18.3355C74.3165 18.3355 73.4912 18.9802 73.2815 20.0064C73.2422 20.2169 73.216 20.4801 73.216 20.7432V26.1242H69.9276V19.0065Z" fill="#030303"/>
<path d="M81.3524 19.9796H81.3917C81.6275 19.5454 81.8895 19.1112 82.1515 18.7034L84.287 15.5195H88.2436L84.4573 19.8085L88.7807 26.1237H84.7456L82.1908 21.7689L81.3524 22.8082V26.1237H78.064V10.7305H81.3524V19.9796Z" fill="#030303"/>
<path d="M95.8803 26.112L95.6837 25.0463H95.6182C94.9239 25.8883 93.8496 26.3488 92.5919 26.3488C90.4564 26.3488 89.1855 24.7832 89.1855 23.0991C89.1855 20.3494 91.6486 19.0206 95.3824 19.0469V18.889C95.3824 18.3233 95.0811 17.5208 93.4565 17.5208C92.3822 17.5208 91.2293 17.8891 90.535 18.3233L89.9323 16.1919C90.666 15.7841 92.1071 15.2578 94.033 15.2578C97.5572 15.2578 98.6708 17.3366 98.6708 19.8363V23.5202C98.6708 24.5332 98.7101 25.52 98.828 26.0989H95.8803V26.112ZM95.4872 21.1125C93.7579 21.0862 92.4215 21.5072 92.4215 22.7834C92.4215 23.6254 92.9849 24.0464 93.7186 24.0464C94.5439 24.0464 95.2121 23.507 95.4217 22.836C95.461 22.665 95.4872 22.4676 95.4872 22.2703V21.1125Z" fill="#030303"/>
<path d="M101.252 23.2293C101.854 23.5977 103.112 24.0318 104.081 24.0318C105.077 24.0318 105.483 23.6898 105.483 23.1372C105.483 22.5846 105.156 22.3346 103.924 21.9268C101.749 21.19 100.898 19.9928 100.924 18.7429C100.924 16.7694 102.614 15.2695 105.221 15.2695C106.453 15.2695 107.553 15.5458 108.195 15.8747L107.606 18.1508C107.134 17.8877 106.23 17.5456 105.313 17.5456C104.514 17.5456 104.055 17.8745 104.055 18.414C104.055 18.9139 104.461 19.177 105.758 19.6244C107.763 20.3217 108.614 21.3347 108.628 22.9004C108.628 24.8739 107.069 26.3211 104.055 26.3211C102.68 26.3211 101.448 26.0185 100.649 25.5843L101.252 23.2293Z" fill="#030303"/>
<path d="M110.633 23.2293C111.236 23.5977 112.493 24.0318 113.463 24.0318C114.458 24.0318 114.865 23.6898 114.865 23.1372C114.865 22.5846 114.537 22.3346 113.306 21.9268C111.131 21.19 110.279 19.9928 110.305 18.7429C110.305 16.7694 111.995 15.2695 114.603 15.2695C115.834 15.2695 116.935 15.5458 117.577 15.8747L116.987 18.1508C116.515 17.8877 115.611 17.5456 114.694 17.5456C113.895 17.5456 113.437 17.8745 113.437 18.414C113.437 18.9139 113.843 19.177 115.14 19.6244C117.144 20.3217 117.996 21.3347 118.009 22.9004C118.009 24.8739 116.45 26.3211 113.437 26.3211C112.061 26.3211 110.829 26.0185 110.03 25.5843L110.633 23.2293Z" fill="#030303"/>
<path d="M122.556 21.861C122.66 23.2293 123.997 23.874 125.529 23.874C126.656 23.874 127.56 23.7161 128.451 23.4398L128.883 25.6764C127.809 26.1106 126.486 26.3211 125.058 26.3211C121.468 26.3211 119.424 24.2423 119.424 20.9269C119.424 18.2429 121.088 15.2695 124.757 15.2695C128.163 15.2695 129.46 17.9403 129.46 20.5585C129.46 21.1242 129.394 21.6242 129.355 21.861H122.556ZM126.42 19.6112C126.42 18.8087 126.08 17.4667 124.56 17.4667C123.184 17.4667 122.621 18.7297 122.529 19.6112H126.42Z" fill="#030303"/>
</svg>
