<svg width="98" height="58" viewBox="0 0 98 58" fill="none" xmlns="http://www.w3.org/2000/svg">
<path d="M49.0408 50.233C54.8576 44.9624 58.5313 37.433 58.5313 29.1506C58.5313 20.7177 54.8576 13.1883 49.0408 8.06828C43.8363 3.55063 37.1011 0.689453 29.6005 0.689453C13.5278 0.689453 0.516602 13.4895 0.516602 29.1506C0.516602 44.9624 13.5278 57.7624 29.6005 57.7624C37.1011 57.6118 43.8363 54.7507 49.0408 50.233Z" fill="#303030"/>
<path d="M49.041 50.235C54.8578 44.9644 58.5316 37.435 58.5316 29.1527C58.5316 20.7197 54.8578 13.1903 49.041 8.07031" fill="#303030"/>
<path d="M49.041 50.235C54.8578 44.9644 58.5316 37.435 58.5316 29.1527C58.5316 20.7197 54.8578 13.1903 49.041 8.07031" stroke="#303030" stroke-width="0.3097"/>
<path d="M68.4804 0.541016C60.9798 0.541016 54.0915 3.40218 49.0401 7.91983C47.9686 8.82336 47.0502 9.87748 46.1317 10.9316H51.9485C52.7138 11.8351 53.4792 12.8892 54.0915 13.9434H43.8356C43.2233 14.8469 42.611 15.901 42.1518 16.9551H55.7753C56.2345 18.0092 56.6938 18.9128 56.9999 19.9669H40.9272C40.6211 21.021 40.3149 21.9245 40.0088 22.9787H57.7653C58.2245 24.9363 58.3776 26.894 58.3776 29.0022C58.3776 32.1645 57.9183 35.1763 56.8468 38.0375H40.7742C41.0803 39.0916 41.5395 40.1457 41.9987 41.0493H55.6222C55.163 42.1034 54.5507 43.1575 53.9384 44.061H43.6825C44.2948 45.1151 45.0602 46.1693 45.8255 47.0728H51.6424C50.7239 48.1269 49.8054 49.181 48.7339 50.0846C53.9384 54.6022 60.6736 57.4634 68.1742 57.4634C84.2469 57.4634 97.105 44.6634 97.105 28.8516C97.5643 13.341 84.5531 0.541016 68.4804 0.541016Z" fill="#4D4D4D"/>
<path d="M25.9269 36.0795H22.2532L24.3962 24.936L19.4979 36.0795H16.2833L15.671 25.0866L13.528 36.0795H10.3135L13.0688 21.623H18.7325L19.0386 30.6583L23.0185 21.623H28.8353L25.9269 36.0795Z" fill="white"/>
<path d="M66.3387 36.0793C65.4203 36.3805 64.5019 36.5311 63.7365 36.5311C61.8996 36.5311 60.8281 35.6276 60.8281 33.9711C60.8281 33.6699 60.8281 33.2182 60.9812 32.917L61.1342 31.7123L61.2873 30.8087L62.9711 21.7734H66.4918L66.0326 24.484H67.8695L67.4102 27.3452H65.5734L64.655 32.3146C64.655 32.4652 64.655 32.7664 64.655 32.7664C64.655 33.3687 65.1142 33.6699 65.8795 33.6699C66.3387 33.6699 66.6449 33.6699 66.798 33.5193L66.3387 36.0793Z" fill="white"/>
<path d="M76.7459 24.4846C76.4398 24.334 76.4397 24.334 76.2867 24.334C76.1336 24.334 75.9805 24.334 75.9805 24.334C75.8275 24.334 75.6744 24.334 75.5213 24.334C74.2967 24.334 73.5314 24.7857 72.3068 26.2916L72.6129 24.4846H69.7045L67.5615 36.2305H71.2353C72.4599 29.0022 73.0721 27.7975 74.7559 27.7975C74.909 27.7975 75.0621 27.7975 75.2152 27.7975L75.6744 27.9481L76.7459 24.4846Z" fill="white"/>
<path d="M51.9489 28.0989C51.9489 29.6048 52.8674 30.6589 54.7043 31.4118C56.235 32.0142 56.388 32.1648 56.388 32.7671C56.388 33.5201 55.7758 33.8212 54.245 33.8212C53.1735 33.8212 52.102 33.6707 51.0305 33.3695L50.5713 36.0801H50.7244L51.3367 36.2307C51.4897 36.2307 51.949 36.3813 52.2551 36.3813C53.1735 36.3813 53.7858 36.5318 54.245 36.5318C58.0719 36.5318 59.9088 35.3271 59.9088 32.6165C59.9088 30.9601 59.1434 30.0565 57.3065 29.3036C55.7758 28.7012 55.6227 28.5507 55.6227 27.9483C55.6227 27.3459 56.235 27.0448 57.4596 27.0448C58.2249 27.0448 59.1434 27.0448 60.0618 27.1954L60.521 24.4848C59.6026 24.3342 58.2249 24.1836 57.3065 24.1836C53.3266 24.1836 51.9489 25.9907 51.9489 28.0989Z" fill="white"/>
<path d="M35.1102 30.9601C34.651 30.9601 34.4979 30.9601 34.3448 30.9601C32.3549 30.9601 31.2834 31.5624 31.2834 32.7671C31.2834 33.5201 31.7426 33.9718 32.508 33.9718C33.8856 33.8212 34.9571 32.6165 35.1102 30.9601ZM37.7124 36.0801H34.651L34.8041 34.8754C33.8856 35.7789 32.661 36.2307 30.9772 36.2307C28.9873 36.2307 27.7627 34.8754 27.7627 33.0683C27.7627 30.2071 30.0588 28.5506 34.0387 28.5506C34.4979 28.5506 34.9571 28.5507 35.5694 28.7012C35.7225 28.2495 35.7225 28.0989 35.7225 27.9483C35.7225 27.1954 35.1102 26.8942 33.4264 26.8942C32.3549 26.8942 31.2834 27.0448 30.518 27.1954L30.0588 27.346L29.7526 27.4965L30.2119 24.7859C32.0488 24.3342 33.1202 24.1836 34.4979 24.1836C37.5594 24.1836 39.2432 25.3883 39.2432 27.6471C39.2432 28.2495 39.2432 28.7012 38.937 29.906L38.1716 34.1224L38.0186 34.8754L37.8655 35.4777V35.9295L37.7124 36.0801Z" fill="white"/>
<path d="M47.662 28.8501C47.662 28.5489 47.662 28.3983 47.662 28.2477C47.662 27.3442 47.0497 26.7418 45.9782 26.7418C44.7536 26.7418 43.9882 27.4948 43.6821 28.8501H47.662ZM49.4988 35.9277C48.2742 36.2289 47.0497 36.3795 45.8251 36.3795C41.8452 36.3795 39.7021 34.5724 39.7021 31.1089C39.7021 27.043 42.3044 24.0312 45.9782 24.0312C48.8865 24.0312 50.8765 25.6877 50.8765 28.2477C50.8765 29.1513 50.7234 29.9042 50.4173 31.1089H43.2229C43.2229 31.2595 43.2229 31.4101 43.2229 31.4101C43.2229 32.7654 44.2943 33.5183 46.4374 33.5183C47.6619 33.5183 48.8865 33.2171 50.2642 32.7654L49.4988 35.9277Z" fill="white"/>
<path d="M84.2483 29.3036C84.2483 28.0989 83.7891 26.8942 82.2584 26.8942C80.4215 26.8942 79.35 29.0024 79.35 30.9601C79.35 32.6165 80.1154 33.6707 81.493 33.6707C82.2584 33.6707 83.9422 32.6165 84.2483 30.8095C84.2483 30.3577 84.2483 29.7554 84.2483 29.3036ZM88.0752 30.8095C87.4629 34.7248 84.7075 36.5318 81.0338 36.5318C76.9008 36.5318 75.3701 34.1224 75.3701 31.1107C75.3701 26.8942 78.1254 24.1836 82.4114 24.1836C86.2383 24.1836 88.0752 26.4424 88.0752 29.4542C88.2282 30.0565 88.2282 30.0565 88.0752 30.8095Z" fill="white"/>
</svg>
