<svg width="113" height="64" viewBox="0 0 113 64" fill="none" xmlns="http://www.w3.org/2000/svg">
<path d="M50.248 37.3528L53.2174 18.6758H57.8836L54.9142 37.3528H50.248Z" fill="#1D1D1D"/>
<path d="M36.4598 18.6758H43.8832C48.5493 18.6758 49.8219 21.4349 49.1856 24.6185C48.7614 27.3776 46.8526 29.0755 44.3074 29.7122L48.9735 37.3528H42.8227L39.217 29.9244L38.1566 37.3528H33.2783L36.4598 18.6758ZM40.7017 22.2838L39.8533 26.9531H41.338C42.6106 26.9531 43.8832 25.8919 44.0953 24.6185C44.3074 23.345 43.459 22.2838 41.9743 22.2838H40.7017Z" fill="#1D1D1D"/>
<path d="M72.0928 37.3528L75.0621 18.6758H79.9404L76.971 37.3528H72.0928Z" fill="#1D1D1D"/>
<path d="M87.7894 22.7083L87.1532 25.8919H92.6677L92.0314 29.9244H86.5169L86.0927 33.3202H91.8193L91.183 37.3528H80.5781L83.5475 18.6758H94.1524L93.5161 22.7083H87.7894Z" fill="#1D1D1D"/>
<path d="M27.1283 22.7083L26.7041 25.8919H32.2186L31.5824 29.9244H26.0678L25.4315 33.3202H31.1582L30.5219 37.3528H19.917L22.8864 18.6758H33.4912L32.8549 22.7083H27.1283Z" fill="#1D1D1D"/>
<path d="M65.7299 22.7083L65.3057 25.8919H70.6081L69.9718 29.9244H64.6694L63.3968 37.3528H58.5186L61.4879 18.6758H72.3049L71.6686 22.7083H65.7299Z" fill="#1D1D1D"/>
<path d="M103.271 18.6758H96.9078L93.9385 37.3528H100.301C106.24 37.3528 111.118 33.3202 111.967 28.0143C112.391 24.4062 110.694 18.6758 103.271 18.6758ZM106.876 27.802C106.24 31.1979 103.907 33.3202 100.726 33.3202C100.301 33.3202 99.8772 33.3202 99.453 33.3202L101.15 22.7083C101.574 22.7083 101.786 22.7083 102.21 22.7083C105.816 22.7083 107.301 25.2552 106.876 27.802Z" fill="#1D1D1D"/>
<path d="M0.404297 16.1301H9.31239L10.3729 29.7134C16.3116 19.5259 22.2503 9.76297 28.4012 0H31.3705C25.0076 12.3098 18.6447 24.8319 12.4939 37.354H5.91883L4.22205 22.285C3.79786 18.677 3.16156 16.9791 0.404297 16.7668V16.1301Z" fill="#1D1D1D"/>
<path d="M12.4929 20.1634L19.4921 8.27799V7.85352H3.79688V8.27799L11.4324 11.6738L12.0687 20.1634H12.4929Z" fill="#6B6B6B"/>
<path d="M40.2791 47.7532C39.0065 47.7532 37.946 48.3899 37.0976 49.2389L38.1581 41.8105H34.9766L32.6436 58.1529H35.825L36.0371 56.8795C36.6734 57.7284 37.5218 58.3652 38.7944 58.3652C41.3396 58.3652 43.6726 56.0305 44.0968 53.0592C44.521 50.0879 42.8242 47.7532 40.2791 47.7532ZM40.7033 53.0592C40.4912 54.3326 39.4307 55.3938 38.3702 55.3938C37.3097 55.3938 36.4613 54.3326 36.6734 53.0592C36.8855 51.7858 37.946 50.7246 39.0065 50.7246C40.067 50.7246 40.9154 51.7858 40.7033 53.0592Z" fill="#1E1E1E"/>
<path d="M53.0043 47.9648H56.61L47.0656 63.246H43.46L47.4898 56.8789L44.3084 47.9648H47.914L49.6108 53.2708L53.0043 47.9648Z" fill="#1E1E1E"/>
<path d="M78.0312 58.1529H73.5771L78.6675 41.8105H83.1215L78.0312 58.1529Z" fill="#1E1E1E"/>
<path d="M71.6693 41.8105L65.7306 52.4225L65.3064 41.8105H57.6709V42.4473C60.2161 42.4473 60.6403 42.8717 61.0645 44.7819L62.5491 58.1529H67.2153L76.5476 41.8105H71.6693Z" fill="#1E1E1E"/>
<path d="M100.727 55.8183L99.6663 58.1529H94.7881L103.696 41.8105H109.635L111.12 58.1529H107.726H106.241L106.029 55.8183H100.727ZM102.211 52.6347H106.029L105.605 44.9941L102.211 52.6347Z" fill="#1D1D1D"/>
<path d="M87.7881 58.5761C84.6066 58.5761 82.4857 57.5149 81.001 56.6659L83.122 53.4824C84.3945 54.3313 85.455 55.1803 88.0002 55.1803C88.8486 55.1803 89.4849 54.968 89.9091 54.3313C90.5454 53.2701 89.697 52.6334 88.0002 51.7845L87.1518 50.9355C84.6066 49.2376 83.334 47.5397 84.6066 44.5683C85.455 42.6582 87.3639 41.3848 90.7575 41.3848C93.0905 41.3848 95.2115 42.446 96.4841 43.2949L93.9389 46.054C92.6663 44.9928 91.6058 44.5683 90.5454 44.5683C89.697 44.5683 88.8486 44.9928 88.6365 45.4173C88.2123 46.2663 88.8486 46.903 90.1212 47.7519L91.1817 48.3886C94.3631 50.2988 94.9994 52.4212 94.3631 54.3313C93.3026 57.9394 90.5454 58.5761 87.7881 58.5761Z" fill="#1D1D1D"/>
</svg>
