<svg width="160" height="46" viewBox="0 0 160 46" fill="none" xmlns="http://www.w3.org/2000/svg">
<path d="M159.16 45.6634H0.42334V0.0351562H159.16V45.6634Z" fill="#030303"/>
<path d="M56.7553 8.77148C53.0815 8.77148 50.9385 10.2774 50.9385 12.8374C50.9385 14.4938 51.7038 15.6985 53.5407 16.1503L57.0614 17.2044C57.5206 17.355 57.9798 17.6562 57.9798 18.108C57.9798 18.7103 57.5206 19.1621 56.7553 19.1621C56.296 19.1621 55.9899 19.0115 55.8368 18.7103C55.6837 18.4091 55.5307 18.108 55.5307 17.8068H50.6323C50.6323 21.1197 53.5407 22.0233 56.6022 22.0233C60.2759 22.0233 62.7251 20.668 62.7251 17.6562C62.7251 16.1503 61.9597 14.9456 60.429 14.3433C59.2044 13.7409 57.3675 13.4397 56.4491 13.1385C55.9899 12.988 55.6837 12.8374 55.6837 12.3856C55.6837 11.9338 55.9899 11.6327 56.9083 11.6327C57.5206 11.6327 57.9798 11.9338 57.9798 12.6868H62.572C62.2659 9.67501 59.9698 8.77148 56.7553 8.77148ZM126.557 8.77148V36.6303H128.087V8.77148H126.557ZM142.629 8.92207C141.711 8.92207 140.945 9.67501 140.945 10.5785C140.945 11.4821 141.711 12.235 142.629 12.235C143.548 12.235 144.313 11.4821 144.313 10.5785C144.466 9.67501 143.701 8.92207 142.629 8.92207ZM15.5786 9.07266L18.3339 21.7221H23.8446L25.0691 13.5903L26.2937 21.7221H31.8043L34.5597 9.07266H29.9675L28.8959 16.9033L27.6714 9.07266H22.4669L21.2423 16.9033L20.0177 9.07266H15.5786ZM37.468 9.07266V21.7221H47.2647V18.4091H42.2133V17.0538H46.6524V13.7409H42.2133V12.3856H47.1116V9.07266H37.468ZM65.6335 9.07266V12.3856H68.848V21.5715H73.8994V12.3856H77.114V9.07266H65.6335ZM80.3285 9.07266V21.7221H90.2783V18.4091H85.2269V17.0538H89.666V13.7409H85.2269V12.3856H90.1252V9.07266H80.3285ZM93.952 9.07266V21.7221H98.8504V17.2044H99.4627C100.228 17.2044 100.534 17.5056 100.687 18.108C100.84 19.1621 100.993 20.8185 101.3 21.7221H106.198C105.586 19.7644 105.739 18.108 105.432 16.9033C105.126 15.9997 104.514 15.3974 103.289 15.2468C105.126 14.795 105.892 13.7409 105.892 12.235C105.892 9.8256 104.208 9.07266 101.606 9.07266H93.952ZM109.872 9.07266V21.7221H114.005V14.0421L116.76 21.7221H122.883V9.07266H118.75V16.6021L115.995 9.07266H109.872ZM138.037 9.07266V36.6303H139.568V9.07266H138.037ZM142.629 9.07266C143.395 9.07266 144.007 9.67501 144.007 10.5785C144.007 11.3315 143.395 12.0844 142.629 12.0844C141.864 12.0844 141.252 11.4821 141.252 10.5785C141.252 9.8256 141.864 9.07266 142.629 9.07266ZM142.017 9.67501V11.4821H142.323V10.7291H142.782L143.242 11.6327H143.548L142.935 10.7291C143.242 10.7291 143.548 10.5785 143.548 10.2774C143.548 9.97619 143.395 9.8256 142.935 9.8256H142.017V9.67501ZM142.323 9.8256H142.782C143.088 9.8256 143.242 9.8256 143.242 10.1268C143.242 10.5785 142.782 10.428 142.629 10.428H142.323V9.8256ZM99.0034 11.9338H99.4627C100.381 11.9338 101.146 12.0844 101.146 12.988C101.146 13.8915 100.381 14.3433 99.4627 14.3433H99.0034V11.9338ZM99.4627 23.8303C95.0235 23.8303 92.8805 26.5409 92.8805 30.4562C92.8805 34.3715 95.0235 37.0821 99.4627 37.0821C103.902 37.0821 106.045 34.3715 106.045 30.4562C106.045 26.5409 103.902 23.8303 99.4627 23.8303ZM50.4793 24.1315V32.5644C50.4793 35.5762 52.6223 37.0821 56.6022 37.0821C60.429 37.0821 62.7251 35.5762 62.7251 32.5644V24.1315H57.6737V32.2633C57.6737 33.3174 57.2145 33.6186 56.6022 33.6186C55.9899 33.6186 55.5307 33.1668 55.5307 32.2633V24.1315H50.4793ZM66.8581 24.1315V36.7809H70.991V29.1009L73.7464 36.7809H79.8693V24.1315H75.7363V31.8115L72.981 24.1315H66.8581ZM84.0023 24.1315V36.7809H89.0537V24.1315H84.0023ZM109.872 24.1315V36.7809H114.005V29.1009L116.76 36.7809H122.883V24.1315H118.75V31.8115L115.995 24.1315H109.872ZM99.4627 27.1433C100.228 27.1433 100.84 27.595 100.84 30.4562C100.84 33.3174 100.228 33.7691 99.4627 33.7691C98.6973 33.7691 98.085 33.3174 98.085 30.4562C98.085 27.595 98.6973 27.1433 99.4627 27.1433Z" fill="#838383"/>
</svg>
